# xmcd
#
# Track frame offsets: 
#        150
#        13161
#        26508
#        44547
#        68173
#        80926
#        102701
#        119096
#        137028
#        151289
#
# Disc length: 2262 seconds
#
# Revision: 0
# Processed by: cddbd v1.5.2PL0 Copyright (c) Steve Scherf et al.
# Submitted via: ExactAudioCopy v1.2
#
DISCID=9108d40a
DTITLE=James Armstrong - Blues Been Good to Me
DYEAR=2017
DGENRE=Blues
TTITLE0=Blues Been Good to Me
TTITLE1=Second Time Around
TTITLE2=Addicted to Love
TTITLE3=Early Grave
TTITLE4=Old Man in the Morning (Young Man at Night)
TTITLE5=Change in the Weather
TTITLE6=How Sweet It Is to Be Loved by You
TTITLE7=Ain't Another Love Song
TTITLE8=Sleeping With a Stranger
TTITLE9=Shot Gun Wedding
EXTD=
EXTT0=
EXTT1=
EXTT2=
EXTT3=
EXTT4=
EXTT5=
EXTT6=
EXTT7=
EXTT8=
EXTT9=
PLAYORDER=
